<svg version="1.1" id="Layer_1" xmlns="http://www.w3.org/2000/svg" xmlns:xlink="http://www.w3.org/1999/xlink" x="0px" y="0px"
	 width="100%" viewBox="0 0 225 225" enable-background="new 0 0 225 225" xml:space="preserve">
<path fill="#010101" opacity="1.000000" stroke="none" 
	d="
M226.000000,39.000000 
	C226.000000,88.687561 226.000000,138.375122 225.648270,188.646332 
	C224.921402,190.322067 224.506531,191.402328 224.177094,192.508041 
	C219.543900,208.058487 209.264084,218.215851 194.232727,223.793686 
	C191.873734,224.669037 189.413437,225.271393 187.000000,226.000000 
	C137.645767,226.000000 88.291542,226.000000 38.353615,225.648300 
	C19.380081,220.309448 7.173816,209.020050 2.130854,190.392426 
	C1.988038,189.864899 1.387247,189.461349 1.000001,189.000000 
	C1.000000,138.979111 1.000000,88.958214 1.351715,38.353714 
	C2.078567,36.678143 2.493001,35.597900 2.822923,34.492435 
	C7.462018,18.948261 17.735434,8.793758 32.759346,3.188382 
	C34.824284,2.417960 36.919044,1.727488 39.000000,1.000000 
	C88.020897,1.000000 137.041794,1.000000 186.666809,1.365560 
	C204.641586,4.185338 219.641464,17.589840 224.242249,34.698013 
	C224.641388,36.182236 225.405441,37.568329 226.000000,39.000000 
M21.987120,41.715763 
	C21.742521,44.024918 21.286852,46.333866 21.284590,48.643257 
	C21.242174,91.945572 21.210266,135.248001 21.275961,178.550262 
	C21.300571,194.771774 32.387218,205.708252 48.685471,205.722168 
	C91.821243,205.759003 134.957092,205.753387 178.092880,205.725189 
	C194.717438,205.714310 205.708878,194.808289 205.722595,178.275040 
	C205.758408,135.139267 205.754395,92.003418 205.724640,48.867634 
	C205.713196,32.261734 194.813858,21.287642 178.229980,21.269226 
	C135.094223,21.221327 91.958366,21.234159 48.822582,21.264250 
	C35.323807,21.273666 26.220488,28.025471 21.987120,41.715763 
z"/>
<path fill="#FBFBFB" opacity="1.000000" stroke="none" 
	d="
M226.000000,38.531342 
	C225.405441,37.568329 224.641388,36.182236 224.242249,34.698013 
	C219.641464,17.589840 204.641586,4.185338 187.135468,1.365560 
	C199.925690,1.000000 212.851364,1.000000 226.000000,1.000000 
	C226.000000,13.353334 226.000000,25.708010 226.000000,38.531342 
z"/>
<path fill="#FBFBFB" opacity="1.000000" stroke="none" 
	d="
M187.468658,226.000000 
	C189.413437,225.271393 191.873734,224.669037 194.232727,223.793686 
	C209.264084,218.215851 219.543900,208.058487 224.177094,192.508041 
	C224.506531,191.402328 224.921402,190.322067 225.648270,189.114990 
	C226.000000,201.261902 226.000000,213.523788 226.000000,226.000000 
	C213.313248,226.000000 200.625275,226.000000 187.468658,226.000000 
z"/>
<path fill="#FBFBFB" opacity="1.000000" stroke="none" 
	d="
M38.531342,1.000000 
	C36.919044,1.727488 34.824284,2.417960 32.759346,3.188382 
	C17.735434,8.793758 7.462018,18.948261 2.822923,34.492435 
	C2.493001,35.597900 2.078567,36.678143 1.351715,37.885056 
	C1.000000,25.739063 1.000000,13.478125 1.000000,1.000000 
	C13.353380,1.000000 25.708031,1.000000 38.531342,1.000000 
z"/>
<path fill="#FBFBFB" opacity="1.000000" stroke="none" 
	d="
M1.000001,189.468658 
	C1.387247,189.461349 1.988038,189.864899 2.130854,190.392426 
	C7.173816,209.020050 19.380081,220.309448 37.884956,225.648300 
	C25.740049,226.000000 13.480098,226.000000 1.000000,226.000000 
	C1.000000,213.979996 1.000000,201.958664 1.000001,189.468658 
z"/>
<path fill="#FDFDFD" opacity="1.000000" stroke="none" 
	d="
M22.044662,41.304634 
	C26.220488,28.025471 35.323807,21.273666 48.822582,21.264250 
	C91.958366,21.234159 135.094223,21.221327 178.229980,21.269226 
	C194.813858,21.287642 205.713196,32.261734 205.724640,48.867634 
	C205.754395,92.003418 205.758408,135.139267 205.722595,178.275040 
	C205.708878,194.808289 194.717438,205.714310 178.092880,205.725189 
	C134.957092,205.753387 91.821243,205.759003 48.685471,205.722168 
	C32.387218,205.708252 21.300571,194.771774 21.275961,178.550262 
	C21.210266,135.248001 21.242174,91.945572 21.284590,48.643257 
	C21.286852,46.333866 21.742521,44.024918 22.044662,41.304634 
z"/>
</svg>